<svg width="231" height="89" viewBox="0 0 231 89" fill="none" xmlns="http://www.w3.org/2000/svg">
<path d="M63.8833 18.261C63.6045 18.261 63.3281 18.2711 63.0538 18.2913V17.5394C63.0553 13.4804 61.6484 9.54655 59.0731 6.40908C56.4978 3.27162 52.9137 1.12488 48.9322 0.335109C44.9507 -0.45466 40.8186 0.161467 37.2407 2.07838C33.6628 3.9953 30.8609 7.09423 29.3129 10.8465C27.3074 9.92336 25.1179 9.4694 22.9108 9.51909C20.7036 9.56879 18.5368 10.1208 16.5749 11.1333C14.613 12.1458 12.9076 13.592 11.5884 15.3623C10.2691 17.1325 9.37058 19.18 8.9611 21.3495C6.48173 21.5106 4.16186 22.6284 2.49086 24.4672C0.819869 26.3059 -0.071603 28.7218 0.00450093 31.2053C0.0806049 33.6887 1.11833 36.0455 2.89878 37.7785C4.67923 39.5115 7.0632 40.4852 9.54778 40.4942H63.8833C66.7495 40.3719 69.4578 39.1472 71.4427 37.0758C73.4276 35.0044 74.5357 32.2464 74.5357 29.3776C74.5357 26.5087 73.4276 23.7507 71.4427 21.6793C69.4578 19.6079 66.7495 18.3833 63.8833 18.261Z" fill="#D4E2EF"/>
<path d="M74.9994 29.3775C74.9994 32.3284 73.8271 35.1586 71.7404 37.2452C69.6538 39.3319 66.8236 40.5042 63.8726 40.5042H60.1637C63.03 40.3819 65.7382 39.1572 67.7231 37.0858C69.708 35.0144 70.8161 32.2564 70.8161 29.3876C70.8161 26.5187 69.708 23.7607 67.7231 21.6893C65.7382 19.6179 63.03 18.3933 60.1637 18.271C59.8839 18.271 59.6074 18.271 59.3343 18.3047V17.5528C59.3354 15.9655 59.1211 14.3855 58.697 12.856C58.6464 12.6739 58.5959 12.4918 58.5385 12.3131C57.5153 9.05069 55.5614 6.15823 52.9168 3.99106C50.2722 1.82389 47.0522 0.476409 43.6523 0.11417C47.7551 -0.323686 51.8809 0.699437 55.3037 3.00352C58.7265 5.30761 61.2271 8.74503 62.3655 12.711C62.8152 14.2855 63.0422 15.9153 63.0398 17.5528V18.3047C63.3129 18.2844 63.5894 18.271 63.8693 18.271C66.8173 18.2701 69.6453 19.4392 71.7321 21.5216C73.8189 23.6039 74.994 26.4294 74.9994 29.3775Z" fill="#BDCBD8"/>
<path d="M226.257 78.7914C226.138 78.7914 226.02 78.7957 225.903 78.8044V78.4835C225.904 76.7517 225.304 75.0732 224.205 73.7346C223.106 72.3959 221.577 71.48 219.878 71.143C218.179 70.806 216.416 71.0689 214.89 71.8868C213.363 72.7047 212.167 74.0269 211.507 75.6279C210.651 75.234 209.717 75.0403 208.775 75.0615C207.834 75.0827 206.909 75.3183 206.072 75.7503C205.235 76.1822 204.507 76.7993 203.944 77.5546C203.382 78.3099 202.998 79.1835 202.823 80.1092C201.766 80.1779 200.776 80.6549 200.063 81.4394C199.35 82.224 198.969 83.2548 199.002 84.3144C199.034 85.374 199.477 86.3795 200.237 87.119C200.996 87.8584 202.014 88.2738 203.074 88.2777H226.257C227.48 88.2255 228.636 87.7029 229.482 86.8191C230.329 85.9353 230.802 84.7586 230.802 83.5345C230.802 82.3105 230.329 81.1337 229.482 80.2499C228.636 79.3661 227.48 78.8436 226.257 78.7914Z" fill="#D4E2EF"/>
<path d="M231 83.5346C231 84.7937 230.5 86.0013 229.609 86.8916C228.719 87.7819 227.511 88.2821 226.252 88.2821H224.67C225.893 88.2299 227.048 87.7074 227.895 86.8236C228.742 85.9398 229.215 84.763 229.215 83.5389C229.215 82.3149 228.742 81.1381 227.895 80.2543C227.048 79.3705 225.893 78.848 224.67 78.7958C224.551 78.7958 224.433 78.7958 224.316 78.8102V78.4894C224.317 77.8122 224.225 77.138 224.044 76.4854C224.023 76.4077 224.001 76.33 223.977 76.2538C223.54 74.8618 222.706 73.6277 221.578 72.703C220.45 71.7783 219.076 71.2034 217.625 71.0488C219.376 70.862 221.136 71.2986 222.596 72.2816C224.057 73.2647 225.124 74.7314 225.609 76.4235C225.801 77.0953 225.898 77.7907 225.897 78.4894V78.8102C226.014 78.8016 226.132 78.7958 226.251 78.7958C227.509 78.7954 228.715 79.2942 229.606 80.1827C230.496 81.0712 230.998 82.2768 231 83.5346Z" fill="#BDCBD8"/>
</svg>
