<svg width="60" height="43" viewBox="0 0 60 43" fill="none" xmlns="http://www.w3.org/2000/svg">
<rect width="60" height="43" rx="8" fill="#FFFACD"/>
<path d="M13.858 17.014L9.868 16.986C9.70933 16.986 9.60667 16.8833 9.56 16.678C9.51333 16.51 9.49 16.3233 9.49 16.118C9.49 15.8007 9.48533 15.4693 9.476 15.124C9.476 14.7787 9.47133 14.3867 9.462 13.948C9.45267 13.4907 9.44333 13.024 9.434 12.548C9.42467 12.0627 9.42 11.5633 9.42 11.05V7.97C9.42 7.886 9.45733 7.80667 9.532 7.732C9.616 7.648 9.7 7.606 9.784 7.606L11.408 7.62C11.5107 7.62933 11.632 7.634 11.772 7.634C11.912 7.634 12.178 7.634 12.57 7.634C12.9247 7.634 13.2373 7.634 13.508 7.634C13.7787 7.634 14.012 7.62933 14.208 7.62L14.726 7.606C15.0153 7.59667 15.272 7.592 15.496 7.592C15.7293 7.58267 15.93 7.578 16.098 7.578C16.7887 7.578 17.414 7.718 17.974 7.998C18.534 8.26867 18.9773 8.656 19.304 9.16C19.7613 9.86933 19.99 10.742 19.99 11.778C19.99 12.758 19.878 13.5793 19.654 14.242C19.43 14.8953 19.0847 15.4273 18.618 15.838C18.142 16.2487 17.5213 16.552 16.756 16.748C15.9907 16.9347 15.0247 17.0233 13.858 17.014ZM13.984 12.996L13.886 15.39C13.9327 15.3993 14.0073 15.404 14.11 15.404C14.166 15.404 14.2267 15.404 14.292 15.404C14.3667 15.3947 14.4507 15.3853 14.544 15.376C14.572 15.3667 14.5953 15.362 14.614 15.362C14.642 15.3527 14.67 15.3433 14.698 15.334C14.7073 15.3247 14.7213 15.32 14.74 15.32C14.768 15.32 14.7867 15.3153 14.796 15.306C14.9453 15.1753 15.0807 14.942 15.202 14.606C15.3233 14.27 15.4493 13.78 15.58 13.136C15.6173 12.9027 15.6407 12.6693 15.65 12.436C15.6687 12.2027 15.678 11.9693 15.678 11.736V11.47C15.678 11.1993 15.6547 10.9193 15.608 10.63C15.5613 10.3407 15.5007 10.0793 15.426 9.846C15.3513 9.61267 15.272 9.44933 15.188 9.356C15.0387 9.22533 14.908 9.16 14.796 9.16C14.6747 9.16 14.5673 9.16933 14.474 9.188C14.3807 9.20667 14.3153 9.22067 14.278 9.23C14.2687 9.23933 14.2127 9.26267 14.11 9.3L14.096 10.98C14.096 11.0547 14.0867 11.148 14.068 11.26C14.0587 11.372 14.0493 11.5027 14.04 11.652L14.026 11.988C14.0167 12.4453 14.0027 12.7813 13.984 12.996ZM22.8449 17.392C21.9676 17.4293 21.3096 17.2473 20.8709 16.846C20.4322 16.4353 20.1942 15.7913 20.1569 14.914C20.1476 14.5407 20.1802 14.242 20.2549 14.018C20.3389 13.794 20.5116 13.5327 20.7729 13.234C21.0529 12.898 21.3702 12.66 21.7249 12.52C22.0796 12.3707 22.5556 12.2913 23.1529 12.282C23.3862 12.2727 23.5869 12.268 23.7549 12.268C23.9322 12.2587 24.0676 12.2587 24.1609 12.268C24.4316 12.2773 24.6416 12.2773 24.7909 12.268C24.7629 11.9787 24.6696 11.7733 24.5109 11.652C24.4176 11.5773 24.2869 11.526 24.1189 11.498C23.9509 11.47 23.7082 11.4513 23.3909 11.442H22.2709C22.1776 11.442 22.1262 11.4467 22.1169 11.456C22.1169 11.456 22.0749 11.456 21.9909 11.456H21.8789L21.0529 11.554C20.9222 11.5073 20.8569 11.3253 20.8569 11.008C20.8569 10.952 20.8569 10.896 20.8569 10.84C20.8569 10.7747 20.8569 10.6673 20.8569 10.518C20.8569 10.3593 20.8476 10.112 20.8289 9.776C20.8476 9.71067 20.8522 9.62667 20.8429 9.524L20.8569 9.314C20.8942 9.314 20.9222 9.30467 20.9409 9.286L21.0109 9.202C21.0202 9.18333 21.0342 9.174 21.0529 9.174C21.0902 9.174 21.1416 9.16933 21.2069 9.16C21.2816 9.14133 21.3656 9.12267 21.4589 9.104L21.7669 9.048C21.8416 9.02933 21.8976 9.02 21.9349 9.02C22.1962 8.964 22.3689 8.92667 22.4529 8.908C22.5462 8.88933 22.6629 8.87533 22.8029 8.866C23.3349 8.838 23.8576 8.83333 24.3709 8.852C24.8842 8.86133 25.3416 8.88933 25.7429 8.936C26.1536 8.98267 26.4522 9.048 26.6389 9.132C27.2176 9.36533 27.6422 9.706 27.9129 10.154C28.1836 10.5927 28.3282 11.1993 28.3469 11.974L28.4029 14.018C28.4122 14.2793 28.4216 14.5127 28.4309 14.718C28.4402 14.914 28.4449 15.0493 28.4449 15.124L28.4589 15.432C28.4216 15.6187 28.3936 15.782 28.3749 15.922C28.3656 16.0527 28.3656 16.1973 28.3749 16.356C28.3936 16.636 28.3796 16.832 28.3329 16.944C28.2956 17.0467 28.2162 17.1027 28.0949 17.112L25.8269 17.182C25.7522 17.1633 25.5749 17.1587 25.2949 17.168C25.1922 17.1773 25.1036 17.168 25.0289 17.14C24.9542 17.1213 24.8796 17.098 24.8049 17.07C24.6742 17.014 24.6089 16.874 24.6089 16.65V16.482C24.6089 16.4633 24.6136 16.4493 24.6229 16.44V16.398C24.6042 16.3793 24.5902 16.37 24.5809 16.37C24.3942 16.6593 24.1376 16.8973 23.8109 17.084C23.4936 17.2707 23.1716 17.3733 22.8449 17.392ZM23.9089 15.152C24.3289 15.152 24.5996 14.928 24.7209 14.48L24.7349 14.214C24.7442 14.0273 24.6882 13.8547 24.5669 13.696C24.4456 13.528 24.3149 13.4487 24.1749 13.458C23.9976 13.4673 23.8436 13.5467 23.7129 13.696C23.5916 13.8453 23.5402 14.0133 23.5589 14.2L23.6149 14.732C23.6896 15.012 23.7876 15.152 23.9089 15.152ZM37.7878 9.188C37.8158 9.188 37.8298 9.20667 37.8298 9.244C37.8298 10.0093 37.8252 10.6953 37.8158 11.302C37.8158 11.8993 37.8112 12.45 37.8018 12.954C37.7925 13.458 37.7785 13.948 37.7598 14.424C37.7412 14.9 37.7178 15.3993 37.6898 15.922C37.6898 15.9593 37.6852 15.9967 37.6758 16.034C37.6758 16.0713 37.6758 16.1087 37.6758 16.146C37.6758 16.1833 37.6758 16.2207 37.6758 16.258C37.6758 16.286 37.6712 16.3093 37.6618 16.328V16.524C37.6618 16.6827 37.6525 16.8693 37.6338 17.084C37.6245 17.308 37.6058 17.5133 37.5778 17.7C37.4565 18.2693 37.2605 18.7313 36.9898 19.086C36.7285 19.4407 36.3412 19.7393 35.8278 19.982C35.6785 20.038 35.5478 20.0753 35.4358 20.094C35.3332 20.122 35.2445 20.1453 35.1698 20.164C35.0018 20.192 34.8198 20.206 34.6238 20.206C34.5025 20.206 34.3018 20.2153 34.0218 20.234C33.7418 20.262 33.3965 20.2713 32.9858 20.262C32.5845 20.262 32.1412 20.2247 31.6558 20.15C31.1705 20.0753 30.6665 19.94 30.1438 19.744L29.7518 19.52V19.436C29.7518 19.38 29.7518 19.324 29.7518 19.268C29.7518 19.2213 29.7565 19.1793 29.7658 19.142C29.7658 19.1233 29.7612 19.1047 29.7518 19.086C29.7518 19.0673 29.7565 19.0533 29.7658 19.044C29.7752 19.0253 29.7798 18.988 29.7798 18.932C29.7798 18.8573 29.7798 18.7967 29.7798 18.75C29.7892 18.7033 29.7938 18.6753 29.7938 18.666C29.7938 18.302 29.7938 18.0733 29.7938 17.98C29.8032 17.896 29.8125 17.8353 29.8218 17.798C29.8312 17.77 29.8358 17.7327 29.8358 17.686C29.8358 17.6487 29.8358 17.6067 29.8358 17.56V17.392C29.8452 17.392 29.8498 17.3873 29.8498 17.378C29.8498 17.3687 29.8545 17.3593 29.8638 17.35C30.1625 17.4527 30.4985 17.5367 30.8718 17.602C31.2545 17.6767 31.6325 17.7233 32.0058 17.742C32.3885 17.77 32.7245 17.7607 33.0138 17.714C33.3032 17.6767 33.5038 17.5927 33.6158 17.462C33.6905 17.462 33.7558 17.4153 33.8118 17.322C33.8678 17.238 33.9145 17.14 33.9518 17.028C33.9985 16.9253 34.0218 16.846 34.0218 16.79C34.0218 16.678 34.0218 16.5567 34.0218 16.426C34.0218 16.2953 34.0265 16.1973 34.0358 16.132L34.0638 15.992C34.0452 15.9173 34.0265 15.866 34.0078 15.838L33.9938 15.67C33.7698 15.894 33.5085 16.0713 33.2098 16.202C32.9112 16.3233 32.6078 16.4073 32.2998 16.454C31.9918 16.5007 31.7072 16.524 31.4458 16.524C30.9605 16.524 30.5545 16.4307 30.2278 16.244C29.9105 16.048 29.6678 15.7913 29.4998 15.474C29.3318 15.1473 29.2245 14.788 29.1778 14.396C29.1498 14.1533 29.1265 13.8453 29.1078 13.472C29.0892 13.0987 29.0938 12.5573 29.1218 11.848C29.1218 11.8013 29.1312 11.7313 29.1498 11.638C29.1685 11.5447 29.1778 11.442 29.1778 11.33C29.1778 11.1527 29.1778 10.9147 29.1778 10.616C29.1872 10.3173 29.1918 10.0513 29.1918 9.818C29.1918 9.74333 29.1918 9.68267 29.1918 9.636C29.1918 9.58 29.1872 9.54733 29.1778 9.538C29.1778 9.482 29.1732 9.43067 29.1638 9.384C29.1638 9.328 29.1638 9.28133 29.1638 9.244C29.1638 9.16933 29.1918 9.12267 29.2478 9.104C29.3132 9.076 29.4112 9.062 29.5418 9.062H30.2278C30.4612 9.062 30.6898 9.06667 30.9138 9.076C31.1472 9.076 31.3805 9.08067 31.6138 9.09C32.2112 9.09933 32.5892 9.23 32.7478 9.482C32.7665 9.51933 32.7758 9.59867 32.7758 9.72C32.7852 9.84133 32.7898 9.98133 32.7898 10.14C32.7898 10.532 32.7898 10.8727 32.7898 11.162C32.7898 11.442 32.7852 11.7033 32.7758 11.946L32.7478 13.318C32.7105 13.7287 32.7712 14.0227 32.9298 14.2C33.0978 14.368 33.3172 14.368 33.5878 14.2C33.7185 14.144 33.8025 14.06 33.8398 13.948V10.266C33.8305 10.182 33.8212 10.1073 33.8118 10.042C33.8118 9.96733 33.8118 9.902 33.8118 9.846C33.8025 9.82733 33.7978 9.75733 33.7978 9.636V9.314C33.7978 9.21133 33.8118 9.14133 33.8398 9.104C33.8678 9.06667 33.9145 9.048 33.9798 9.048C34.0358 9.048 34.0638 9.07133 34.0638 9.118V9.132C34.1385 9.104 34.3065 9.08067 34.5678 9.062C34.8292 9.034 35.0952 9.02 35.3658 9.02H35.6738L37.6058 9.048C37.6525 9.048 37.6758 9.062 37.6758 9.09C37.6852 9.09 37.6898 9.09467 37.6898 9.104V9.188C37.6805 9.188 37.6758 9.202 37.6758 9.23L37.7458 9.216C37.7645 9.19733 37.7785 9.188 37.7878 9.188ZM40.3861 17.238L40.1901 17.21L39.9241 17.126C39.7935 17.1073 39.6675 17.0793 39.5461 17.042C39.4248 17.0047 39.3128 16.9813 39.2101 16.972C39.1635 16.9533 39.1168 16.9347 39.0701 16.916C39.0235 16.8973 38.9815 16.888 38.9441 16.888C38.9255 16.8693 38.8975 16.8507 38.8601 16.832C38.8321 16.804 38.8135 16.7853 38.8041 16.776L38.5241 15.096V14.984C38.5241 14.872 38.5521 14.816 38.6081 14.816C38.8975 14.9093 39.1401 14.9887 39.3361 15.054C39.5321 15.11 39.7608 15.138 40.0221 15.138C40.1715 15.138 40.2695 15.138 40.3161 15.138C40.3628 15.138 40.3955 15.1427 40.4141 15.152C40.5728 15.152 40.7128 15.1333 40.8341 15.096C40.9555 15.0587 41.0488 15.026 41.1141 14.998C41.1888 14.97 41.2261 14.9093 41.2261 14.816C41.2261 14.6667 41.1935 14.55 41.1281 14.466C41.0628 14.382 40.9321 14.2887 40.7361 14.186L40.3441 14.018C40.2881 14.018 40.2695 13.9993 40.2881 13.962C40.3161 13.9153 40.2788 13.8733 40.1761 13.836C40.1761 13.8267 40.1715 13.8173 40.1621 13.808L40.1481 13.794C40.1201 13.7847 40.0875 13.7707 40.0501 13.752C40.0221 13.724 39.9801 13.7007 39.9241 13.682L39.8401 13.654C39.8681 13.654 39.8821 13.6493 39.8821 13.64C39.8821 13.612 39.8681 13.598 39.8401 13.598C39.8308 13.598 39.8121 13.584 39.7841 13.556C39.7655 13.528 39.7328 13.5093 39.6861 13.5C39.6395 13.472 39.6021 13.444 39.5741 13.416C39.5461 13.3787 39.5181 13.3553 39.4901 13.346C39.4248 13.29 39.3921 13.2387 39.3921 13.192V13.094C39.1588 13.094 38.9675 12.856 38.8181 12.38C38.7621 12.156 38.7108 11.9647 38.6641 11.806C38.6268 11.638 38.6081 11.4933 38.6081 11.372C38.6081 10.6627 38.9021 10.0887 39.4901 9.65C40.0781 9.202 40.9088 8.93133 41.9821 8.838C42.3648 8.81 42.7661 8.78667 43.1861 8.768C43.6061 8.74933 44.0028 8.74 44.3761 8.74C44.4415 8.75867 44.4975 8.77733 44.5441 8.796C44.5908 8.81467 44.6328 8.824 44.6701 8.824C44.8288 8.83333 44.9175 8.87533 44.9361 8.95C44.9548 9.02467 44.9828 9.12733 45.0201 9.258C45.0388 9.33267 45.0528 9.47733 45.0621 9.692C45.0715 9.90667 45.0855 10.1913 45.1041 10.546C45.1321 10.5553 45.1461 10.574 45.1461 10.602C45.1461 10.658 45.0481 10.7233 44.8521 10.798C44.7868 10.8073 44.7168 10.8213 44.6421 10.84C44.5675 10.8493 44.4975 10.854 44.4321 10.854L44.1521 10.896C43.9468 10.924 43.7508 10.938 43.5641 10.938C43.3775 10.938 43.2048 11.0173 43.0461 11.176C42.9435 11.288 42.8921 11.4 42.8921 11.512C42.8921 11.6147 42.9481 11.6893 43.0601 11.736C43.1161 11.7733 43.2001 11.82 43.3121 11.876C43.4241 11.9227 43.5688 11.988 43.7461 12.072C44.5208 12.4267 45.0668 12.996 45.3841 13.78C45.4215 13.8733 45.4495 13.976 45.4681 14.088C45.4868 14.2 45.4961 14.3213 45.4961 14.452C45.4961 14.704 45.4635 14.928 45.3981 15.124C45.2488 15.6093 44.8335 16.09 44.1521 16.566C43.5641 16.9767 42.9481 17.1913 42.3041 17.21L40.3861 17.238Z" fill="#232020"/>
<path d="M11.128 33.07C11.0813 33.07 11.0393 33.0653 11.002 33.056C10.9647 33.056 10.9273 33.056 10.89 33.056H10.26L9.644 32.902L9.616 32.804C9.59733 32.804 9.588 32.7573 9.588 32.664C9.57867 32.5053 9.56933 32.3467 9.56 32.188C9.56 32.0293 9.56 31.8613 9.56 31.684C9.56 31.5533 9.55533 31.4367 9.546 31.334C9.546 31.2313 9.54133 31.1473 9.532 31.082C9.532 30.942 9.532 30.8207 9.532 30.718C9.532 30.6153 9.52733 30.5313 9.518 30.466V29.99C9.47133 29.57 9.43867 29.1033 9.42 28.59C9.41067 28.0767 9.41067 27.5867 9.42 27.12L9.448 25.706C9.45733 25.6313 9.462 25.5287 9.462 25.398C9.462 25.2673 9.462 25.1273 9.462 24.978C9.462 24.81 9.462 24.6653 9.462 24.544C9.462 24.4227 9.45733 24.3293 9.448 24.264C9.42 24.0493 9.46667 23.9047 9.588 23.83C9.70933 23.7553 9.882 23.718 10.106 23.718C10.2273 23.718 10.316 23.718 10.372 23.718C10.4373 23.7087 10.512 23.704 10.596 23.704C10.6893 23.6947 10.8293 23.69 11.016 23.69L11.338 23.676C11.5993 23.6573 11.814 23.6433 11.982 23.634C12.1593 23.6153 12.2807 23.606 12.346 23.606C12.486 23.606 12.6027 23.606 12.696 23.606C12.7893 23.606 12.864 23.6293 12.92 23.676C12.9573 23.704 13.0133 23.7693 13.088 23.872C13.172 23.9747 13.2233 24.04 13.242 24.068C13.3073 24.1427 13.3447 24.18 13.354 24.18C13.3633 24.1707 13.396 24.208 13.452 24.292C13.536 24.4133 13.606 24.53 13.662 24.642C13.7273 24.7447 13.788 24.824 13.844 24.88L15.734 26.686L16.196 27.106C16.196 26.9847 16.196 26.8727 16.196 26.77C16.196 26.658 16.2007 26.5693 16.21 26.504V25.23L16.252 24.25C16.2613 24.2033 16.266 24.1707 16.266 24.152C16.2753 24.124 16.28 24.1053 16.28 24.096C16.28 24.0773 16.294 24.054 16.322 24.026C16.3313 24.0167 16.3453 24.012 16.364 24.012C16.476 23.9 16.588 23.83 16.7 23.802C16.784 23.774 16.8587 23.76 16.924 23.76H17.876C17.9133 23.7693 17.9647 23.774 18.03 23.774C18.1047 23.774 18.1887 23.774 18.282 23.774C18.3567 23.774 18.3707 23.774 18.324 23.774C18.2867 23.774 18.2447 23.7787 18.198 23.788C18.1513 23.788 18.1513 23.7927 18.198 23.802H19.234C19.4767 23.802 19.6447 23.8393 19.738 23.914C19.8313 23.9793 19.878 24.1333 19.878 24.376L19.864 24.516L19.85 24.754C19.8313 24.782 19.822 24.852 19.822 24.964V25.244L19.864 25.398V25.818C19.8547 25.8927 19.85 26 19.85 26.14C19.85 26.28 19.85 26.4433 19.85 26.63V27.652C19.8407 27.7733 19.8313 27.9227 19.822 28.1C19.822 28.268 19.822 28.4547 19.822 28.66V32.118L19.766 32.678C19.738 32.8553 19.6587 32.9767 19.528 33.042L19.304 33.056L19.066 33.042H17.12C16.9427 33.0513 16.7887 33.0327 16.658 32.986C16.5273 32.93 16.4107 32.8693 16.308 32.804L13.928 30.536C13.928 30.5267 13.8953 30.4893 13.83 30.424C13.7647 30.3587 13.69 30.284 13.606 30.2C13.5313 30.116 13.4707 30.0507 13.424 30.004C13.4147 29.9853 13.4007 29.9667 13.382 29.948C13.3727 29.9293 13.3633 29.9153 13.354 29.906C13.3447 29.906 13.3353 29.906 13.326 29.906C13.326 29.8967 13.3213 29.892 13.312 29.892C13.2187 29.892 13.172 29.9247 13.172 29.99V30.298C13.1627 30.3447 13.158 30.41 13.158 30.494C13.158 30.5687 13.158 30.6573 13.158 30.76V31.838C13.1487 31.894 13.1393 31.9547 13.13 32.02C13.1207 32.0853 13.116 32.1553 13.116 32.23V32.72L13.144 32.804C13.144 32.8227 13.13 32.846 13.102 32.874C13.0833 32.902 13.06 32.916 13.032 32.916C12.9947 32.944 12.9293 32.9487 12.836 32.93C12.6587 32.9393 12.5047 32.9533 12.374 32.972C12.2527 32.9907 12.1547 33.0047 12.08 33.014C11.996 33.0233 11.884 33.0327 11.744 33.042C11.604 33.0513 11.4733 33.056 11.352 33.056C11.2307 33.0653 11.156 33.07 11.128 33.07ZM24.787 36.528C24.4883 36.528 24.2596 36.5187 24.101 36.5C23.9516 36.4907 23.8256 36.472 23.723 36.444C23.6203 36.4253 23.485 36.4113 23.317 36.402C22.9343 36.318 22.6496 36.234 22.463 36.15C22.2856 36.066 22.1176 35.9493 21.959 35.8H21.805L21.791 35.702H21.679L21.581 35.576C21.441 35.4267 21.3196 35.3007 21.217 35.198C21.1236 35.0953 21.049 34.96 20.993 34.792C20.9463 34.624 20.923 34.3767 20.923 34.05C20.923 33.8633 21.0023 33.644 21.161 33.392C21.329 33.14 21.5296 32.9347 21.763 32.776C21.1003 32.5427 20.783 32.1133 20.811 31.488C20.8296 31.2173 20.9556 30.97 21.189 30.746C21.4223 30.5127 21.7396 30.2887 22.141 30.074L22.505 29.878H22.561C22.3463 29.8313 22.1176 29.7473 21.875 29.626C21.6323 29.5047 21.4736 29.3973 21.399 29.304H21.273V29.192C21.2636 29.192 21.2543 29.192 21.245 29.192C21.2356 29.1827 21.2216 29.178 21.203 29.178L21.077 29.01C20.909 28.7953 20.7783 28.52 20.685 28.184C20.601 27.848 20.5636 27.5073 20.573 27.162C20.601 26.6393 20.7736 26.196 21.091 25.832C21.4176 25.468 21.931 25.146 22.631 24.866C22.8083 24.7633 22.9856 24.698 23.163 24.67C23.3496 24.642 23.5316 24.6187 23.709 24.6C23.9423 24.6 24.1943 24.6047 24.465 24.614C24.7356 24.6233 25.0016 24.628 25.263 24.628H25.333C25.3703 24.628 25.389 24.6327 25.389 24.642C25.473 24.6327 25.627 24.6327 25.851 24.642C25.9816 24.6513 26.089 24.6653 26.173 24.684C26.257 24.6933 26.3456 24.712 26.439 24.74L26.705 24.824C26.8076 24.852 26.8683 24.838 26.887 24.782C26.9056 24.7167 26.9103 24.6373 26.901 24.544C26.901 24.4507 26.915 24.3713 26.943 24.306C27.0176 24.1473 27.1016 23.97 27.195 23.774C27.2976 23.5687 27.4096 23.34 27.531 23.088L27.629 23.074L28.049 23.2C28.1143 23.2 28.1563 23.2093 28.175 23.228C28.203 23.2653 28.2263 23.2887 28.245 23.298C28.2636 23.3073 28.2776 23.3213 28.287 23.34L28.567 23.452C28.6043 23.4333 28.6556 23.4427 28.721 23.48L28.903 23.55L28.945 23.592C28.9823 23.592 29.0056 23.5967 29.015 23.606C29.043 23.634 29.057 23.648 29.057 23.648C29.0756 23.6293 29.085 23.634 29.085 23.662C29.1036 23.662 29.1176 23.6667 29.127 23.676L29.169 23.704L29.477 23.844L29.519 23.9C29.5563 23.9 29.575 23.9047 29.575 23.914C29.603 23.942 29.6263 23.956 29.645 23.956L29.715 23.998C29.771 24.054 29.7803 24.1007 29.743 24.138C29.6776 24.2127 29.617 24.2873 29.561 24.362C29.505 24.4273 29.3603 24.5673 29.127 24.782C29.1083 24.81 29.0803 24.838 29.043 24.866C29.015 24.8847 28.9916 24.9033 28.973 24.922L28.763 25.076C28.7163 25.1133 28.693 25.1413 28.693 25.16L28.567 25.286C28.539 25.314 28.5016 25.3513 28.455 25.398C28.4083 25.4447 28.3663 25.4913 28.329 25.538C28.833 25.9767 29.0616 26.602 29.015 27.414C28.9963 27.7033 28.945 28.002 28.861 28.31C28.7863 28.618 28.7023 28.8467 28.609 28.996C28.4876 29.2013 28.3196 29.3927 28.105 29.57C27.8903 29.738 27.671 29.8593 27.447 29.934L27.167 30.032C27.139 30.0413 27.111 30.0553 27.083 30.074H26.999C26.9803 30.0833 26.929 30.102 26.845 30.13C26.7703 30.1487 26.635 30.1813 26.439 30.228C26.383 30.2373 26.3223 30.242 26.257 30.242C26.1916 30.2327 26.1496 30.228 26.131 30.228C26.0096 30.228 25.9116 30.228 25.837 30.228C25.7716 30.2187 25.7296 30.2187 25.711 30.228C25.6643 30.2373 25.6036 30.2373 25.529 30.228C25.4636 30.2093 25.4076 30.2047 25.361 30.214C25.081 30.186 24.8756 30.2047 24.745 30.27C24.6143 30.326 24.5443 30.4007 24.535 30.494C24.535 30.5873 24.5816 30.676 24.675 30.76C24.7683 30.8347 24.8943 30.8767 25.053 30.886C25.473 30.9327 25.7763 30.9747 25.963 31.012C26.159 31.04 26.299 31.068 26.383 31.096C26.4763 31.1147 26.565 31.138 26.649 31.166C26.733 31.1847 26.8683 31.208 27.055 31.236C28.7536 31.488 29.5983 32.3047 29.589 33.686C29.5703 35.0113 28.819 35.884 27.335 36.304C27.3163 36.304 27.3023 36.2947 27.293 36.276C27.2836 36.2573 27.2556 36.2667 27.209 36.304C27.1996 36.3133 27.1763 36.318 27.139 36.318C27.083 36.346 26.999 36.36 26.887 36.36H26.789C26.5276 36.36 26.285 36.3927 26.061 36.458C25.837 36.5327 25.6316 36.556 25.445 36.528C25.3983 36.5187 25.333 36.514 25.249 36.514C25.165 36.5233 25.109 36.528 25.081 36.528H24.787ZM24.913 28.548L25.193 28.534L25.445 28.31L25.515 28.268L25.599 28.072V27.946C25.6176 27.8993 25.6316 27.8573 25.641 27.82C25.6596 27.7733 25.6876 27.7173 25.725 27.652V27.596L25.739 27.498L25.375 26.602C25.3376 26.4433 25.2676 26.35 25.165 26.322C25.025 26.294 24.941 26.2707 24.913 26.252C24.885 26.2333 24.829 26.224 24.745 26.224C24.7263 26.224 24.6936 26.2333 24.647 26.252C24.6003 26.2613 24.5443 26.2753 24.479 26.294C24.2176 26.462 24.087 26.7 24.087 27.008V27.12C24.087 27.2787 24.0963 27.4327 24.115 27.582C24.143 27.722 24.1756 27.8153 24.213 27.862C24.2596 27.9273 24.2783 27.9787 24.269 28.016C24.2596 28.0533 24.255 28.0813 24.255 28.1C24.255 28.1933 24.297 28.268 24.381 28.324C24.4743 28.38 24.5676 28.436 24.661 28.492C24.6796 28.5107 24.7076 28.5293 24.745 28.548C24.7823 28.5573 24.8383 28.5573 24.913 28.548ZM25.655 34.484C25.9723 34.4187 26.2196 34.3207 26.397 34.19C26.5743 34.0687 26.6583 33.9473 26.649 33.826C26.6396 33.714 26.5136 33.6393 26.271 33.602C26.1776 33.5833 26.131 33.5693 26.131 33.56C26.1403 33.5507 26.1216 33.546 26.075 33.546H25.711C25.7016 33.5367 25.6596 33.5273 25.585 33.518C25.5103 33.5087 25.431 33.4993 25.347 33.49C25.2443 33.4713 25.207 33.4573 25.235 33.448C25.263 33.448 25.2396 33.4527 25.165 33.462C25.0436 33.4527 24.955 33.4433 24.899 33.434C24.8523 33.4247 24.8056 33.4153 24.759 33.406C24.7216 33.3967 24.6516 33.3873 24.549 33.378C24.4276 33.3687 24.2876 33.3593 24.129 33.35C23.9796 33.3407 23.8816 33.336 23.835 33.336C23.7603 33.336 23.723 33.3407 23.723 33.35C23.723 33.3593 23.7136 33.378 23.695 33.406L23.639 33.518C23.583 33.63 23.583 33.77 23.639 33.938C23.695 34.1153 23.7836 34.2507 23.905 34.344C24.0636 34.4653 24.2736 34.5353 24.535 34.554C24.8056 34.5727 25.179 34.5493 25.655 34.484ZM31.9367 33.392C31.0594 33.4293 30.4014 33.2473 29.9627 32.846C29.524 32.4353 29.286 31.7913 29.2487 30.914C29.2394 30.5407 29.272 30.242 29.3467 30.018C29.4307 29.794 29.6034 29.5327 29.8647 29.234C30.1447 28.898 30.462 28.66 30.8167 28.52C31.1714 28.3707 31.6474 28.2913 32.2447 28.282C32.478 28.2727 32.6787 28.268 32.8467 28.268C33.024 28.2587 33.1594 28.2587 33.2527 28.268C33.5234 28.2773 33.7334 28.2773 33.8827 28.268C33.8547 27.9787 33.7614 27.7733 33.6027 27.652C33.5094 27.5773 33.3787 27.526 33.2107 27.498C33.0427 27.47 32.8 27.4513 32.4827 27.442H31.3627C31.2694 27.442 31.218 27.4467 31.2087 27.456C31.2087 27.456 31.1667 27.456 31.0827 27.456H30.9707L30.1447 27.554C30.014 27.5073 29.9487 27.3253 29.9487 27.008C29.9487 26.952 29.9487 26.896 29.9487 26.84C29.9487 26.7747 29.9487 26.6673 29.9487 26.518C29.9487 26.3593 29.9394 26.112 29.9207 25.776C29.9394 25.7107 29.944 25.6267 29.9347 25.524L29.9487 25.314C29.986 25.314 30.014 25.3047 30.0327 25.286L30.1027 25.202C30.112 25.1833 30.126 25.174 30.1447 25.174C30.182 25.174 30.2334 25.1693 30.2987 25.16C30.3734 25.1413 30.4574 25.1227 30.5507 25.104L30.8587 25.048C30.9334 25.0293 30.9894 25.02 31.0267 25.02C31.288 24.964 31.4607 24.9267 31.5447 24.908C31.638 24.8893 31.7547 24.8753 31.8947 24.866C32.4267 24.838 32.9494 24.8333 33.4627 24.852C33.976 24.8613 34.4334 24.8893 34.8347 24.936C35.2454 24.9827 35.544 25.048 35.7307 25.132C36.3094 25.3653 36.734 25.706 37.0047 26.154C37.2754 26.5927 37.42 27.1993 37.4387 27.974L37.4947 30.018C37.504 30.2793 37.5134 30.5127 37.5227 30.718C37.532 30.914 37.5367 31.0493 37.5367 31.124L37.5507 31.432C37.5134 31.6187 37.4854 31.782 37.4667 31.922C37.4574 32.0527 37.4574 32.1973 37.4667 32.356C37.4854 32.636 37.4714 32.832 37.4247 32.944C37.3874 33.0467 37.308 33.1027 37.1867 33.112L34.9187 33.182C34.844 33.1633 34.6667 33.1587 34.3867 33.168C34.284 33.1773 34.1954 33.168 34.1207 33.14C34.046 33.1213 33.9714 33.098 33.8967 33.07C33.766 33.014 33.7007 32.874 33.7007 32.65V32.482C33.7007 32.4633 33.7054 32.4493 33.7147 32.44V32.398C33.696 32.3793 33.682 32.37 33.6727 32.37C33.486 32.6593 33.2294 32.8973 32.9027 33.084C32.5854 33.2707 32.2634 33.3733 31.9367 33.392ZM33.0007 31.152C33.4207 31.152 33.6914 30.928 33.8127 30.48L33.8267 30.214C33.836 30.0273 33.78 29.8547 33.6587 29.696C33.5374 29.528 33.4067 29.4487 33.2667 29.458C33.0894 29.4673 32.9354 29.5467 32.8047 29.696C32.6834 29.8453 32.632 30.0133 32.6507 30.2L32.7067 30.732C32.7814 31.012 32.8794 31.152 33.0007 31.152ZM38.4047 32.076V32.034L38.4187 31.726V28.758C38.4187 28.394 38.4187 28.1327 38.4187 27.974C38.4187 27.806 38.4187 27.694 38.4187 27.638C38.428 27.582 38.4374 27.5307 38.4467 27.484V26.938C38.4654 26.63 38.4794 26.3873 38.4887 26.21C38.5074 26.0233 38.5167 25.8413 38.5167 25.664C38.5167 25.3653 38.54 25.16 38.5867 25.048C38.6427 24.9267 38.736 24.866 38.8667 24.866L39.7347 24.88H41.0367C41.0834 24.8893 41.158 24.8987 41.2607 24.908C41.3727 24.908 41.5034 24.908 41.6527 24.908C41.8954 24.908 42.0867 24.95 42.2267 25.034C42.3294 25.0807 42.3807 25.328 42.3807 25.776C42.7914 25.2533 43.496 24.992 44.4947 24.992C45.1107 24.992 45.6427 25.16 46.0907 25.496C46.548 25.8227 46.898 26.2893 47.1407 26.896C47.3927 27.5027 47.5187 28.2213 47.5187 29.052C47.5187 29.3413 47.4814 29.6727 47.4067 30.046C47.332 30.4193 47.234 30.7693 47.1127 31.096C46.9914 31.4227 46.8654 31.6747 46.7347 31.852C46.3614 32.3467 45.974 32.7107 45.5727 32.944C45.1714 33.1773 44.7234 33.294 44.2287 33.294C43.6594 33.294 43.2067 33.238 42.8707 33.126C42.5347 33.014 42.2734 32.8273 42.0867 32.566V34.582H42.0727L42.0867 35.38V36.094C42.0867 36.262 41.8487 36.346 41.3727 36.346C41.2794 36.346 41.2 36.346 41.1347 36.346C41.0694 36.346 41.0134 36.3413 40.9667 36.332C40.892 36.3227 40.8267 36.3133 40.7707 36.304C40.724 36.2947 40.6774 36.29 40.6307 36.29C40.556 36.2807 40.416 36.2713 40.2107 36.262C40.0054 36.262 39.8187 36.262 39.6507 36.262L39.5947 36.318L38.8387 36.262C38.6614 36.2713 38.54 36.248 38.4747 36.192C38.4187 36.1453 38.3907 36.0847 38.3907 36.01C38.3907 35.9447 38.3907 35.8887 38.3907 35.842C38.3907 34.9647 38.3907 34.2133 38.3907 33.588C38.4 32.972 38.4047 32.468 38.4047 32.076ZM43.0387 30.774C43.1787 30.746 43.2767 30.62 43.3327 30.396C43.3794 30.2093 43.4074 30.0367 43.4167 29.878C43.4354 29.7193 43.4447 29.556 43.4447 29.388C43.4634 29.3133 43.4774 29.2107 43.4867 29.08C43.496 28.9493 43.5007 28.758 43.5007 28.506L43.4867 28.422C43.4867 28.3753 43.4774 28.3333 43.4587 28.296C43.4494 28.2587 43.4447 28.226 43.4447 28.198C43.4167 27.8807 43.3327 27.6287 43.1927 27.442C43.0527 27.246 42.88 27.148 42.6747 27.148C42.572 27.148 42.4974 27.246 42.4507 27.442C42.404 27.638 42.3434 27.9087 42.2687 28.254C42.2594 28.3753 42.2454 28.5573 42.2267 28.8C42.208 29.0333 42.1987 29.2107 42.1987 29.332C42.208 29.4347 42.2127 29.5653 42.2127 29.724C42.222 29.8827 42.236 30.0413 42.2547 30.2C42.2734 30.3493 42.292 30.466 42.3107 30.55C42.32 30.6993 42.376 30.7927 42.4787 30.83C42.5814 30.858 42.768 30.8393 43.0387 30.774ZM49.7748 23.69L49.6908 23.648C49.6908 23.6293 49.6814 23.62 49.6628 23.62C49.6348 23.62 49.6161 23.6247 49.6068 23.634C49.5974 23.6433 49.5788 23.648 49.5508 23.648L49.4248 23.676L49.3268 23.648C49.2988 23.648 49.2801 23.6433 49.2708 23.634C49.2614 23.6247 49.2428 23.62 49.2148 23.62L48.8928 23.578L48.7948 23.536H48.7248C48.7248 23.5547 48.7154 23.564 48.6968 23.564C48.6314 23.564 48.5894 23.5593 48.5708 23.55C48.5614 23.5407 48.5381 23.536 48.5008 23.536C48.4261 23.4893 48.3748 23.4147 48.3468 23.312C48.3374 23.2933 48.3328 23.2747 48.3328 23.256C48.3328 23.228 48.3281 23.2093 48.3188 23.2C48.3094 23.1907 48.3048 23.1813 48.3048 23.172C48.3048 23.1533 48.3001 23.1393 48.2908 23.13V21.8C48.3001 21.7627 48.3048 21.7067 48.3048 21.632V21.268C48.3048 21.1467 48.2954 21.0627 48.2768 21.016V20.988C48.2768 20.9787 48.3188 20.9693 48.4028 20.96C48.4868 20.9507 48.5661 20.946 48.6408 20.946C48.7154 20.946 48.7621 20.946 48.7808 20.946C48.8088 20.946 48.8274 20.9507 48.8368 20.96H49.0328L49.3128 20.988L49.5788 21.072C49.6441 21.0813 49.7654 21.0953 49.9428 21.114C50.1201 21.1327 50.2274 21.142 50.2648 21.142C50.3114 21.142 50.4001 21.156 50.5308 21.184C50.6708 21.212 50.7594 21.2213 50.7968 21.212C50.8434 21.2027 50.8901 21.2213 50.9368 21.268C50.9834 21.3053 51.0254 21.324 51.0628 21.324C51.2308 21.296 51.4034 21.3193 51.5808 21.394C51.6834 21.4313 51.7721 21.464 51.8468 21.492C51.9214 21.5107 51.9634 21.5573 51.9728 21.632L51.9868 22.066C51.9961 22.3367 52.0148 22.5607 52.0428 22.738C52.0801 22.906 52.0801 23.1393 52.0428 23.438L51.9448 23.536L50.7548 23.648C50.6801 23.648 50.5774 23.6527 50.4468 23.662C50.3254 23.662 50.2508 23.6667 50.2228 23.676C50.1854 23.6853 50.1481 23.69 50.1108 23.69C50.0734 23.69 50.0314 23.69 49.9848 23.69H49.7748ZM51.2868 33.224L50.9508 33.182L50.3068 33.112L50.1108 33.126H49.6208C49.6114 33.0887 49.5834 33.07 49.5368 33.07L49.3408 33.084C49.2754 33.0933 49.2101 33.1027 49.1448 33.112C49.0888 33.1213 49.0468 33.126 49.0188 33.126C49.0001 33.1073 48.9674 33.0933 48.9208 33.084H48.8508C48.8508 33.0747 48.8414 33.07 48.8228 33.07L48.7808 33.084L48.7668 33.098C48.6361 33.098 48.5474 33.0607 48.5008 32.986C48.4634 32.9207 48.4354 32.832 48.4168 32.72C48.3981 32.5987 48.3888 32.4213 48.3888 32.188C48.3981 32.1227 48.3981 32.048 48.3888 31.964C48.3888 31.88 48.3794 31.7447 48.3608 31.558L48.3188 30.984V27.022C48.3188 26.8633 48.3141 26.7093 48.3048 26.56C48.3048 26.4107 48.2954 26.2287 48.2768 26.014C48.2674 25.93 48.2534 25.8553 48.2348 25.79C48.2254 25.7807 48.2208 25.748 48.2208 25.692C48.2394 25.3187 48.3188 25.0713 48.4588 24.95C48.6081 24.8193 48.8881 24.754 49.2988 24.754C49.2988 24.754 49.3268 24.7447 49.3828 24.726C49.4108 24.7167 49.4434 24.712 49.4808 24.712H49.4948C49.5041 24.712 49.5134 24.7167 49.5228 24.726C49.6068 24.726 49.6581 24.7353 49.6768 24.754H49.7328C49.7701 24.754 49.8028 24.74 49.8308 24.712L50.8808 24.726C50.9181 24.726 50.9601 24.726 51.0068 24.726C51.0534 24.7167 51.1094 24.7073 51.1748 24.698C51.2308 24.6887 51.3521 24.684 51.5388 24.684C51.9681 24.684 52.1828 24.7587 52.1828 24.908V27.064C52.1828 27.3813 52.1781 27.736 52.1688 28.128C52.1594 28.52 52.1501 28.8887 52.1408 29.234C52.1314 29.5793 52.1174 29.85 52.0988 30.046L52.0568 30.62C52.0381 30.9373 52.0241 31.2127 52.0148 31.446C52.0054 31.6793 51.9961 31.8707 51.9868 32.02C51.9774 32.0293 51.9728 32.0527 51.9728 32.09C51.9728 32.118 51.9728 32.1973 51.9728 32.328C51.9728 32.58 51.9401 32.7853 51.8748 32.944C51.8094 33.0933 51.7208 33.168 51.6088 33.168L51.2868 33.224Z" fill="#867070"/>
</svg>
