<svg width="44" height="30" viewBox="0 0 44 30" fill="none" xmlns="http://www.w3.org/2000/svg">
<path d="M4.858 10.014L0.868 9.986C0.709333 9.986 0.606667 9.88333 0.56 9.678C0.513333 9.51 0.49 9.32333 0.49 9.118C0.49 8.80067 0.485333 8.46933 0.476 8.124C0.476 7.77867 0.471333 7.38667 0.462 6.948C0.452667 6.49067 0.443333 6.024 0.434 5.548C0.424667 5.06267 0.42 4.56333 0.42 4.05V0.969999C0.42 0.885999 0.457333 0.806666 0.532 0.731999C0.616 0.648 0.7 0.606 0.784 0.606L2.408 0.62C2.51067 0.629333 2.632 0.634 2.772 0.634C2.912 0.634 3.178 0.634 3.57 0.634C3.92467 0.634 4.23733 0.634 4.508 0.634C4.77867 0.634 5.012 0.629333 5.208 0.62L5.726 0.606C6.01533 0.596666 6.272 0.591999 6.496 0.591999C6.72933 0.582666 6.93 0.577999 7.098 0.577999C7.78867 0.577999 8.414 0.718 8.974 0.998C9.534 1.26867 9.97733 1.656 10.304 2.16C10.7613 2.86933 10.99 3.742 10.99 4.778C10.99 5.758 10.878 6.57933 10.654 7.242C10.43 7.89533 10.0847 8.42733 9.618 8.838C9.142 9.24867 8.52133 9.552 7.756 9.748C6.99067 9.93467 6.02467 10.0233 4.858 10.014ZM4.984 5.996L4.886 8.39C4.93267 8.39933 5.00733 8.404 5.11 8.404C5.166 8.404 5.22667 8.404 5.292 8.404C5.36667 8.39467 5.45067 8.38533 5.544 8.376C5.572 8.36667 5.59533 8.362 5.614 8.362C5.642 8.35267 5.67 8.34333 5.698 8.334C5.70733 8.32467 5.72133 8.32 5.74 8.32C5.768 8.32 5.78667 8.31533 5.796 8.306C5.94533 8.17533 6.08067 7.942 6.202 7.606C6.32333 7.27 6.44933 6.78 6.58 6.136C6.61733 5.90267 6.64067 5.66933 6.65 5.436C6.66867 5.20267 6.678 4.96933 6.678 4.736V4.47C6.678 4.19933 6.65467 3.91933 6.608 3.63C6.56133 3.34067 6.50067 3.07933 6.426 2.846C6.35133 2.61267 6.272 2.44933 6.188 2.356C6.03867 2.22533 5.908 2.16 5.796 2.16C5.67467 2.16 5.56733 2.16933 5.474 2.188C5.38067 2.20667 5.31533 2.22067 5.278 2.23C5.26867 2.23933 5.21267 2.26267 5.11 2.3L5.096 3.98C5.096 4.05467 5.08667 4.148 5.068 4.26C5.05867 4.372 5.04933 4.50267 5.04 4.652L5.026 4.988C5.01667 5.44533 5.00267 5.78133 4.984 5.996ZM13.8449 10.392C12.9676 10.4293 12.3096 10.2473 11.8709 9.846C11.4322 9.43533 11.1942 8.79133 11.1569 7.914C11.1476 7.54067 11.1802 7.242 11.2549 7.018C11.3389 6.794 11.5116 6.53267 11.7729 6.234C12.0529 5.898 12.3702 5.66 12.7249 5.52C13.0796 5.37067 13.5556 5.29133 14.1529 5.282C14.3862 5.27267 14.5869 5.268 14.7549 5.268C14.9322 5.25867 15.0676 5.25867 15.1609 5.268C15.4316 5.27733 15.6416 5.27733 15.7909 5.268C15.7629 4.97867 15.6696 4.77333 15.5109 4.652C15.4176 4.57733 15.2869 4.526 15.1189 4.498C14.9509 4.47 14.7082 4.45133 14.3909 4.442H13.2709C13.1776 4.442 13.1262 4.44667 13.1169 4.456C13.1169 4.456 13.0749 4.456 12.9909 4.456H12.8789L12.0529 4.554C11.9222 4.50733 11.8569 4.32533 11.8569 4.008C11.8569 3.952 11.8569 3.896 11.8569 3.84C11.8569 3.77467 11.8569 3.66733 11.8569 3.518C11.8569 3.35933 11.8476 3.112 11.8289 2.776C11.8476 2.71067 11.8522 2.62667 11.8429 2.524L11.8569 2.314C11.8942 2.314 11.9222 2.30467 11.9409 2.286L12.0109 2.202C12.0202 2.18333 12.0342 2.174 12.0529 2.174C12.0902 2.174 12.1416 2.16933 12.2069 2.16C12.2816 2.14133 12.3656 2.12267 12.4589 2.104L12.7669 2.048C12.8416 2.02933 12.8976 2.02 12.9349 2.02C13.1962 1.964 13.3689 1.92667 13.4529 1.908C13.5462 1.88933 13.6629 1.87533 13.8029 1.866C14.3349 1.838 14.8576 1.83333 15.3709 1.852C15.8842 1.86133 16.3416 1.88933 16.7429 1.936C17.1536 1.98267 17.4522 2.048 17.6389 2.132C18.2176 2.36533 18.6422 2.706 18.9129 3.154C19.1836 3.59267 19.3282 4.19933 19.3469 4.974L19.4029 7.018C19.4122 7.27933 19.4216 7.51267 19.4309 7.718C19.4402 7.914 19.4449 8.04933 19.4449 8.124L19.4589 8.432C19.4216 8.61867 19.3936 8.782 19.3749 8.922C19.3656 9.05267 19.3656 9.19733 19.3749 9.356C19.3936 9.636 19.3796 9.832 19.3329 9.944C19.2956 10.0467 19.2162 10.1027 19.0949 10.112L16.8269 10.182C16.7522 10.1633 16.5749 10.1587 16.2949 10.168C16.1922 10.1773 16.1036 10.168 16.0289 10.14C15.9542 10.1213 15.8796 10.098 15.8049 10.07C15.6742 10.014 15.6089 9.874 15.6089 9.65V9.482C15.6089 9.46333 15.6136 9.44933 15.6229 9.44V9.398C15.6042 9.37933 15.5902 9.37 15.5809 9.37C15.3942 9.65933 15.1376 9.89733 14.8109 10.084C14.4936 10.2707 14.1716 10.3733 13.8449 10.392ZM14.9089 8.152C15.3289 8.152 15.5996 7.928 15.7209 7.48L15.7349 7.214C15.7442 7.02733 15.6882 6.85467 15.5669 6.696C15.4456 6.528 15.3149 6.44867 15.1749 6.458C14.9976 6.46733 14.8436 6.54667 14.7129 6.696C14.5916 6.84533 14.5402 7.01333 14.5589 7.2L14.6149 7.732C14.6896 8.012 14.7876 8.152 14.9089 8.152ZM28.7878 2.188C28.8158 2.188 28.8298 2.20667 28.8298 2.244C28.8298 3.00933 28.8252 3.69533 28.8158 4.302C28.8158 4.89933 28.8112 5.45 28.8018 5.954C28.7925 6.458 28.7785 6.948 28.7598 7.424C28.7412 7.9 28.7178 8.39933 28.6898 8.922C28.6898 8.95933 28.6852 8.99667 28.6758 9.034C28.6758 9.07133 28.6758 9.10867 28.6758 9.146C28.6758 9.18333 28.6758 9.22067 28.6758 9.258C28.6758 9.286 28.6712 9.30933 28.6618 9.328V9.524C28.6618 9.68267 28.6525 9.86933 28.6338 10.084C28.6245 10.308 28.6058 10.5133 28.5778 10.7C28.4565 11.2693 28.2605 11.7313 27.9898 12.086C27.7285 12.4407 27.3412 12.7393 26.8278 12.982C26.6785 13.038 26.5478 13.0753 26.4358 13.094C26.3332 13.122 26.2445 13.1453 26.1698 13.164C26.0018 13.192 25.8198 13.206 25.6238 13.206C25.5025 13.206 25.3018 13.2153 25.0218 13.234C24.7418 13.262 24.3965 13.2713 23.9858 13.262C23.5845 13.262 23.1412 13.2247 22.6558 13.15C22.1705 13.0753 21.6665 12.94 21.1438 12.744L20.7518 12.52V12.436C20.7518 12.38 20.7518 12.324 20.7518 12.268C20.7518 12.2213 20.7565 12.1793 20.7658 12.142C20.7658 12.1233 20.7612 12.1047 20.7518 12.086C20.7518 12.0673 20.7565 12.0533 20.7658 12.044C20.7752 12.0253 20.7798 11.988 20.7798 11.932C20.7798 11.8573 20.7798 11.7967 20.7798 11.75C20.7892 11.7033 20.7938 11.6753 20.7938 11.666C20.7938 11.302 20.7938 11.0733 20.7938 10.98C20.8032 10.896 20.8125 10.8353 20.8218 10.798C20.8312 10.77 20.8358 10.7327 20.8358 10.686C20.8358 10.6487 20.8358 10.6067 20.8358 10.56V10.392C20.8452 10.392 20.8498 10.3873 20.8498 10.378C20.8498 10.3687 20.8545 10.3593 20.8638 10.35C21.1625 10.4527 21.4985 10.5367 21.8718 10.602C22.2545 10.6767 22.6325 10.7233 23.0058 10.742C23.3885 10.77 23.7245 10.7607 24.0138 10.714C24.3032 10.6767 24.5038 10.5927 24.6158 10.462C24.6905 10.462 24.7558 10.4153 24.8118 10.322C24.8678 10.238 24.9145 10.14 24.9518 10.028C24.9985 9.92533 25.0218 9.846 25.0218 9.79C25.0218 9.678 25.0218 9.55667 25.0218 9.426C25.0218 9.29533 25.0265 9.19733 25.0358 9.132L25.0638 8.992C25.0452 8.91733 25.0265 8.866 25.0078 8.838L24.9938 8.67C24.7698 8.894 24.5085 9.07133 24.2098 9.202C23.9112 9.32333 23.6078 9.40733 23.2998 9.454C22.9918 9.50067 22.7072 9.524 22.4458 9.524C21.9605 9.524 21.5545 9.43067 21.2278 9.244C20.9105 9.048 20.6678 8.79133 20.4998 8.474C20.3318 8.14733 20.2245 7.788 20.1778 7.396C20.1498 7.15333 20.1265 6.84533 20.1078 6.472C20.0892 6.09867 20.0938 5.55733 20.1218 4.848C20.1218 4.80133 20.1312 4.73133 20.1498 4.638C20.1685 4.54467 20.1778 4.442 20.1778 4.33C20.1778 4.15267 20.1778 3.91467 20.1778 3.616C20.1872 3.31733 20.1918 3.05133 20.1918 2.818C20.1918 2.74333 20.1918 2.68267 20.1918 2.636C20.1918 2.58 20.1872 2.54733 20.1778 2.538C20.1778 2.482 20.1732 2.43067 20.1638 2.384C20.1638 2.328 20.1638 2.28133 20.1638 2.244C20.1638 2.16933 20.1918 2.12267 20.2478 2.104C20.3132 2.076 20.4112 2.062 20.5418 2.062H21.2278C21.4612 2.062 21.6898 2.06667 21.9138 2.076C22.1472 2.076 22.3805 2.08067 22.6138 2.09C23.2112 2.09933 23.5892 2.23 23.7478 2.482C23.7665 2.51933 23.7758 2.59867 23.7758 2.72C23.7852 2.84133 23.7898 2.98133 23.7898 3.14C23.7898 3.532 23.7898 3.87267 23.7898 4.162C23.7898 4.442 23.7852 4.70333 23.7758 4.946L23.7478 6.318C23.7105 6.72867 23.7712 7.02267 23.9298 7.2C24.0978 7.368 24.3172 7.368 24.5878 7.2C24.7185 7.144 24.8025 7.06 24.8398 6.948V3.266C24.8305 3.182 24.8212 3.10733 24.8118 3.042C24.8118 2.96733 24.8118 2.902 24.8118 2.846C24.8025 2.82733 24.7978 2.75733 24.7978 2.636V2.314C24.7978 2.21133 24.8118 2.14133 24.8398 2.104C24.8678 2.06667 24.9145 2.048 24.9798 2.048C25.0358 2.048 25.0638 2.07133 25.0638 2.118V2.132C25.1385 2.104 25.3065 2.08067 25.5678 2.062C25.8292 2.034 26.0952 2.02 26.3658 2.02H26.6738L28.6058 2.048C28.6525 2.048 28.6758 2.062 28.6758 2.09C28.6852 2.09 28.6898 2.09467 28.6898 2.104V2.188C28.6805 2.188 28.6758 2.202 28.6758 2.23L28.7458 2.216C28.7645 2.19733 28.7785 2.188 28.7878 2.188ZM31.3861 10.238L31.1901 10.21L30.9241 10.126C30.7935 10.1073 30.6675 10.0793 30.5461 10.042C30.4248 10.0047 30.3128 9.98133 30.2101 9.972C30.1635 9.95333 30.1168 9.93467 30.0701 9.916C30.0235 9.89733 29.9815 9.888 29.9441 9.888C29.9255 9.86933 29.8975 9.85067 29.8601 9.832C29.8321 9.804 29.8135 9.78533 29.8041 9.776L29.5241 8.096V7.984C29.5241 7.872 29.5521 7.816 29.6081 7.816C29.8975 7.90933 30.1401 7.98867 30.3361 8.054C30.5321 8.11 30.7608 8.138 31.0221 8.138C31.1715 8.138 31.2695 8.138 31.3161 8.138C31.3628 8.138 31.3955 8.14267 31.4141 8.152C31.5728 8.152 31.7128 8.13333 31.8341 8.096C31.9555 8.05867 32.0488 8.026 32.1141 7.998C32.1888 7.97 32.2261 7.90933 32.2261 7.816C32.2261 7.66667 32.1935 7.55 32.1281 7.466C32.0628 7.382 31.9321 7.28867 31.7361 7.186L31.3441 7.018C31.2881 7.018 31.2695 6.99933 31.2881 6.962C31.3161 6.91533 31.2788 6.87333 31.1761 6.836C31.1761 6.82667 31.1715 6.81733 31.1621 6.808L31.1481 6.794C31.1201 6.78467 31.0875 6.77067 31.0501 6.752C31.0221 6.724 30.9801 6.70067 30.9241 6.682L30.8401 6.654C30.8681 6.654 30.8821 6.64933 30.8821 6.64C30.8821 6.612 30.8681 6.598 30.8401 6.598C30.8308 6.598 30.8121 6.584 30.7841 6.556C30.7655 6.528 30.7328 6.50933 30.6861 6.5C30.6395 6.472 30.6021 6.444 30.5741 6.416C30.5461 6.37867 30.5181 6.35533 30.4901 6.346C30.4248 6.29 30.3921 6.23867 30.3921 6.192V6.094C30.1588 6.094 29.9675 5.856 29.8181 5.38C29.7621 5.156 29.7108 4.96467 29.6641 4.806C29.6268 4.638 29.6081 4.49333 29.6081 4.372C29.6081 3.66267 29.9021 3.08867 30.4901 2.65C31.0781 2.202 31.9088 1.93133 32.9821 1.838C33.3648 1.81 33.7661 1.78667 34.1861 1.768C34.6061 1.74933 35.0028 1.74 35.3761 1.74C35.4415 1.75867 35.4975 1.77733 35.5441 1.796C35.5908 1.81467 35.6328 1.824 35.6701 1.824C35.8288 1.83333 35.9175 1.87533 35.9361 1.95C35.9548 2.02467 35.9828 2.12733 36.0201 2.258C36.0388 2.33267 36.0528 2.47733 36.0621 2.692C36.0715 2.90667 36.0855 3.19133 36.1041 3.546C36.1321 3.55533 36.1461 3.574 36.1461 3.602C36.1461 3.658 36.0481 3.72333 35.8521 3.798C35.7868 3.80733 35.7168 3.82133 35.6421 3.84C35.5675 3.84933 35.4975 3.854 35.4321 3.854L35.1521 3.896C34.9468 3.924 34.7508 3.938 34.5641 3.938C34.3775 3.938 34.2048 4.01733 34.0461 4.176C33.9435 4.288 33.8921 4.4 33.8921 4.512C33.8921 4.61467 33.9481 4.68933 34.0601 4.736C34.1161 4.77333 34.2001 4.82 34.3121 4.876C34.4241 4.92267 34.5688 4.988 34.7461 5.072C35.5208 5.42667 36.0668 5.996 36.3841 6.78C36.4215 6.87333 36.4495 6.976 36.4681 7.088C36.4868 7.2 36.4961 7.32133 36.4961 7.452C36.4961 7.704 36.4635 7.928 36.3981 8.124C36.2488 8.60933 35.8335 9.09 35.1521 9.566C34.5641 9.97667 33.9481 10.1913 33.3041 10.21L31.3861 10.238Z" fill="#232020"/>
<path d="M2.128 26.07C2.08133 26.07 2.03933 26.0653 2.002 26.056C1.96467 26.056 1.92733 26.056 1.89 26.056H1.26L0.644 25.902L0.616 25.804C0.597333 25.804 0.588 25.7573 0.588 25.664C0.578667 25.5053 0.569333 25.3467 0.56 25.188C0.56 25.0293 0.56 24.8613 0.56 24.684C0.56 24.5533 0.555333 24.4367 0.546 24.334C0.546 24.2313 0.541333 24.1473 0.532 24.082C0.532 23.942 0.532 23.8207 0.532 23.718C0.532 23.6153 0.527333 23.5313 0.518 23.466V22.99C0.471333 22.57 0.438667 22.1033 0.42 21.59C0.410667 21.0767 0.410667 20.5867 0.42 20.12L0.448 18.706C0.457333 18.6313 0.462 18.5287 0.462 18.398C0.462 18.2673 0.462 18.1273 0.462 17.978C0.462 17.81 0.462 17.6653 0.462 17.544C0.462 17.4227 0.457333 17.3293 0.448 17.264C0.42 17.0493 0.466667 16.9047 0.588 16.83C0.709333 16.7553 0.882 16.718 1.106 16.718C1.22733 16.718 1.316 16.718 1.372 16.718C1.43733 16.7087 1.512 16.704 1.596 16.704C1.68933 16.6947 1.82933 16.69 2.016 16.69L2.338 16.676C2.59933 16.6573 2.814 16.6433 2.982 16.634C3.15933 16.6153 3.28067 16.606 3.346 16.606C3.486 16.606 3.60267 16.606 3.696 16.606C3.78933 16.606 3.864 16.6293 3.92 16.676C3.95733 16.704 4.01333 16.7693 4.088 16.872C4.172 16.9747 4.22333 17.04 4.242 17.068C4.30733 17.1427 4.34467 17.18 4.354 17.18C4.36333 17.1707 4.396 17.208 4.452 17.292C4.536 17.4133 4.606 17.53 4.662 17.642C4.72733 17.7447 4.788 17.824 4.844 17.88L6.734 19.686L7.196 20.106C7.196 19.9847 7.196 19.8727 7.196 19.77C7.196 19.658 7.20067 19.5693 7.21 19.504V18.23L7.252 17.25C7.26133 17.2033 7.266 17.1707 7.266 17.152C7.27533 17.124 7.28 17.1053 7.28 17.096C7.28 17.0773 7.294 17.054 7.322 17.026C7.33133 17.0167 7.34533 17.012 7.364 17.012C7.476 16.9 7.588 16.83 7.7 16.802C7.784 16.774 7.85867 16.76 7.924 16.76H8.876C8.91333 16.7693 8.96467 16.774 9.03 16.774C9.10467 16.774 9.18867 16.774 9.282 16.774C9.35667 16.774 9.37067 16.774 9.324 16.774C9.28667 16.774 9.24467 16.7787 9.198 16.788C9.15133 16.788 9.15133 16.7927 9.198 16.802H10.234C10.4767 16.802 10.6447 16.8393 10.738 16.914C10.8313 16.9793 10.878 17.1333 10.878 17.376L10.864 17.516L10.85 17.754C10.8313 17.782 10.822 17.852 10.822 17.964V18.244L10.864 18.398V18.818C10.8547 18.8927 10.85 19 10.85 19.14C10.85 19.28 10.85 19.4433 10.85 19.63V20.652C10.8407 20.7733 10.8313 20.9227 10.822 21.1C10.822 21.268 10.822 21.4547 10.822 21.66V25.118L10.766 25.678C10.738 25.8553 10.6587 25.9767 10.528 26.042L10.304 26.056L10.066 26.042H8.12C7.94267 26.0513 7.78867 26.0327 7.658 25.986C7.52733 25.93 7.41067 25.8693 7.308 25.804L4.928 23.536C4.928 23.5267 4.89533 23.4893 4.83 23.424C4.76467 23.3587 4.69 23.284 4.606 23.2C4.53133 23.116 4.47067 23.0507 4.424 23.004C4.41467 22.9853 4.40067 22.9667 4.382 22.948C4.37267 22.9293 4.36333 22.9153 4.354 22.906C4.34467 22.906 4.33533 22.906 4.326 22.906C4.326 22.8967 4.32133 22.892 4.312 22.892C4.21867 22.892 4.172 22.9247 4.172 22.99V23.298C4.16267 23.3447 4.158 23.41 4.158 23.494C4.158 23.5687 4.158 23.6573 4.158 23.76V24.838C4.14867 24.894 4.13933 24.9547 4.13 25.02C4.12067 25.0853 4.116 25.1553 4.116 25.23V25.72L4.144 25.804C4.144 25.8227 4.13 25.846 4.102 25.874C4.08333 25.902 4.06 25.916 4.032 25.916C3.99467 25.944 3.92933 25.9487 3.836 25.93C3.65867 25.9393 3.50467 25.9533 3.374 25.972C3.25267 25.9907 3.15467 26.0047 3.08 26.014C2.996 26.0233 2.884 26.0327 2.744 26.042C2.604 26.0513 2.47333 26.056 2.352 26.056C2.23067 26.0653 2.156 26.07 2.128 26.07ZM15.787 29.528C15.4883 29.528 15.2596 29.5187 15.101 29.5C14.9516 29.4907 14.8256 29.472 14.723 29.444C14.6203 29.4253 14.485 29.4113 14.317 29.402C13.9343 29.318 13.6496 29.234 13.463 29.15C13.2856 29.066 13.1176 28.9493 12.959 28.8H12.805L12.791 28.702H12.679L12.581 28.576C12.441 28.4267 12.3196 28.3007 12.217 28.198C12.1236 28.0953 12.049 27.96 11.993 27.792C11.9463 27.624 11.923 27.3767 11.923 27.05C11.923 26.8633 12.0023 26.644 12.161 26.392C12.329 26.14 12.5296 25.9347 12.763 25.776C12.1003 25.5427 11.783 25.1133 11.811 24.488C11.8296 24.2173 11.9556 23.97 12.189 23.746C12.4223 23.5127 12.7396 23.2887 13.141 23.074L13.505 22.878H13.561C13.3463 22.8313 13.1176 22.7473 12.875 22.626C12.6323 22.5047 12.4736 22.3973 12.399 22.304H12.273V22.192C12.2636 22.192 12.2543 22.192 12.245 22.192C12.2356 22.1827 12.2216 22.178 12.203 22.178L12.077 22.01C11.909 21.7953 11.7783 21.52 11.685 21.184C11.601 20.848 11.5636 20.5073 11.573 20.162C11.601 19.6393 11.7736 19.196 12.091 18.832C12.4176 18.468 12.931 18.146 13.631 17.866C13.8083 17.7633 13.9856 17.698 14.163 17.67C14.3496 17.642 14.5316 17.6187 14.709 17.6C14.9423 17.6 15.1943 17.6047 15.465 17.614C15.7356 17.6233 16.0016 17.628 16.263 17.628H16.333C16.3703 17.628 16.389 17.6327 16.389 17.642C16.473 17.6327 16.627 17.6327 16.851 17.642C16.9816 17.6513 17.089 17.6653 17.173 17.684C17.257 17.6933 17.3456 17.712 17.439 17.74L17.705 17.824C17.8076 17.852 17.8683 17.838 17.887 17.782C17.9056 17.7167 17.9103 17.6373 17.901 17.544C17.901 17.4507 17.915 17.3713 17.943 17.306C18.0176 17.1473 18.1016 16.97 18.195 16.774C18.2976 16.5687 18.4096 16.34 18.531 16.088L18.629 16.074L19.049 16.2C19.1143 16.2 19.1563 16.2093 19.175 16.228C19.203 16.2653 19.2263 16.2887 19.245 16.298C19.2636 16.3073 19.2776 16.3213 19.287 16.34L19.567 16.452C19.6043 16.4333 19.6556 16.4427 19.721 16.48L19.903 16.55L19.945 16.592C19.9823 16.592 20.0056 16.5967 20.015 16.606C20.043 16.634 20.057 16.648 20.057 16.648C20.0756 16.6293 20.085 16.634 20.085 16.662C20.1036 16.662 20.1176 16.6667 20.127 16.676L20.169 16.704L20.477 16.844L20.519 16.9C20.5563 16.9 20.575 16.9047 20.575 16.914C20.603 16.942 20.6263 16.956 20.645 16.956L20.715 16.998C20.771 17.054 20.7803 17.1007 20.743 17.138C20.6776 17.2127 20.617 17.2873 20.561 17.362C20.505 17.4273 20.3603 17.5673 20.127 17.782C20.1083 17.81 20.0803 17.838 20.043 17.866C20.015 17.8847 19.9916 17.9033 19.973 17.922L19.763 18.076C19.7163 18.1133 19.693 18.1413 19.693 18.16L19.567 18.286C19.539 18.314 19.5016 18.3513 19.455 18.398C19.4083 18.4447 19.3663 18.4913 19.329 18.538C19.833 18.9767 20.0616 19.602 20.015 20.414C19.9963 20.7033 19.945 21.002 19.861 21.31C19.7863 21.618 19.7023 21.8467 19.609 21.996C19.4876 22.2013 19.3196 22.3927 19.105 22.57C18.8903 22.738 18.671 22.8593 18.447 22.934L18.167 23.032C18.139 23.0413 18.111 23.0553 18.083 23.074H17.999C17.9803 23.0833 17.929 23.102 17.845 23.13C17.7703 23.1487 17.635 23.1813 17.439 23.228C17.383 23.2373 17.3223 23.242 17.257 23.242C17.1916 23.2327 17.1496 23.228 17.131 23.228C17.0096 23.228 16.9116 23.228 16.837 23.228C16.7716 23.2187 16.7296 23.2187 16.711 23.228C16.6643 23.2373 16.6036 23.2373 16.529 23.228C16.4636 23.2093 16.4076 23.2047 16.361 23.214C16.081 23.186 15.8756 23.2047 15.745 23.27C15.6143 23.326 15.5443 23.4007 15.535 23.494C15.535 23.5873 15.5816 23.676 15.675 23.76C15.7683 23.8347 15.8943 23.8767 16.053 23.886C16.473 23.9327 16.7763 23.9747 16.963 24.012C17.159 24.04 17.299 24.068 17.383 24.096C17.4763 24.1147 17.565 24.138 17.649 24.166C17.733 24.1847 17.8683 24.208 18.055 24.236C19.7536 24.488 20.5983 25.3047 20.589 26.686C20.5703 28.0113 19.819 28.884 18.335 29.304C18.3163 29.304 18.3023 29.2947 18.293 29.276C18.2836 29.2573 18.2556 29.2667 18.209 29.304C18.1996 29.3133 18.1763 29.318 18.139 29.318C18.083 29.346 17.999 29.36 17.887 29.36H17.789C17.5276 29.36 17.285 29.3927 17.061 29.458C16.837 29.5327 16.6316 29.556 16.445 29.528C16.3983 29.5187 16.333 29.514 16.249 29.514C16.165 29.5233 16.109 29.528 16.081 29.528H15.787ZM15.913 21.548L16.193 21.534L16.445 21.31L16.515 21.268L16.599 21.072V20.946C16.6176 20.8993 16.6316 20.8573 16.641 20.82C16.6596 20.7733 16.6876 20.7173 16.725 20.652V20.596L16.739 20.498L16.375 19.602C16.3376 19.4433 16.2676 19.35 16.165 19.322C16.025 19.294 15.941 19.2707 15.913 19.252C15.885 19.2333 15.829 19.224 15.745 19.224C15.7263 19.224 15.6936 19.2333 15.647 19.252C15.6003 19.2613 15.5443 19.2753 15.479 19.294C15.2176 19.462 15.087 19.7 15.087 20.008V20.12C15.087 20.2787 15.0963 20.4327 15.115 20.582C15.143 20.722 15.1756 20.8153 15.213 20.862C15.2596 20.9273 15.2783 20.9787 15.269 21.016C15.2596 21.0533 15.255 21.0813 15.255 21.1C15.255 21.1933 15.297 21.268 15.381 21.324C15.4743 21.38 15.5676 21.436 15.661 21.492C15.6796 21.5107 15.7076 21.5293 15.745 21.548C15.7823 21.5573 15.8383 21.5573 15.913 21.548ZM16.655 27.484C16.9723 27.4187 17.2196 27.3207 17.397 27.19C17.5743 27.0687 17.6583 26.9473 17.649 26.826C17.6396 26.714 17.5136 26.6393 17.271 26.602C17.1776 26.5833 17.131 26.5693 17.131 26.56C17.1403 26.5507 17.1216 26.546 17.075 26.546H16.711C16.7016 26.5367 16.6596 26.5273 16.585 26.518C16.5103 26.5087 16.431 26.4993 16.347 26.49C16.2443 26.4713 16.207 26.4573 16.235 26.448C16.263 26.448 16.2396 26.4527 16.165 26.462C16.0436 26.4527 15.955 26.4433 15.899 26.434C15.8523 26.4247 15.8056 26.4153 15.759 26.406C15.7216 26.3967 15.6516 26.3873 15.549 26.378C15.4276 26.3687 15.2876 26.3593 15.129 26.35C14.9796 26.3407 14.8816 26.336 14.835 26.336C14.7603 26.336 14.723 26.3407 14.723 26.35C14.723 26.3593 14.7136 26.378 14.695 26.406L14.639 26.518C14.583 26.63 14.583 26.77 14.639 26.938C14.695 27.1153 14.7836 27.2507 14.905 27.344C15.0636 27.4653 15.2736 27.5353 15.535 27.554C15.8056 27.5727 16.179 27.5493 16.655 27.484ZM22.9367 26.392C22.0594 26.4293 21.4014 26.2473 20.9627 25.846C20.524 25.4353 20.286 24.7913 20.2487 23.914C20.2394 23.5407 20.272 23.242 20.3467 23.018C20.4307 22.794 20.6034 22.5327 20.8647 22.234C21.1447 21.898 21.462 21.66 21.8167 21.52C22.1714 21.3707 22.6474 21.2913 23.2447 21.282C23.478 21.2727 23.6787 21.268 23.8467 21.268C24.024 21.2587 24.1594 21.2587 24.2527 21.268C24.5234 21.2773 24.7334 21.2773 24.8827 21.268C24.8547 20.9787 24.7614 20.7733 24.6027 20.652C24.5094 20.5773 24.3787 20.526 24.2107 20.498C24.0427 20.47 23.8 20.4513 23.4827 20.442H22.3627C22.2694 20.442 22.218 20.4467 22.2087 20.456C22.2087 20.456 22.1667 20.456 22.0827 20.456H21.9707L21.1447 20.554C21.014 20.5073 20.9487 20.3253 20.9487 20.008C20.9487 19.952 20.9487 19.896 20.9487 19.84C20.9487 19.7747 20.9487 19.6673 20.9487 19.518C20.9487 19.3593 20.9394 19.112 20.9207 18.776C20.9394 18.7107 20.944 18.6267 20.9347 18.524L20.9487 18.314C20.986 18.314 21.014 18.3047 21.0327 18.286L21.1027 18.202C21.112 18.1833 21.126 18.174 21.1447 18.174C21.182 18.174 21.2334 18.1693 21.2987 18.16C21.3734 18.1413 21.4574 18.1227 21.5507 18.104L21.8587 18.048C21.9334 18.0293 21.9894 18.02 22.0267 18.02C22.288 17.964 22.4607 17.9267 22.5447 17.908C22.638 17.8893 22.7547 17.8753 22.8947 17.866C23.4267 17.838 23.9494 17.8333 24.4627 17.852C24.976 17.8613 25.4334 17.8893 25.8347 17.936C26.2454 17.9827 26.544 18.048 26.7307 18.132C27.3094 18.3653 27.734 18.706 28.0047 19.154C28.2754 19.5927 28.42 20.1993 28.4387 20.974L28.4947 23.018C28.504 23.2793 28.5134 23.5127 28.5227 23.718C28.532 23.914 28.5367 24.0493 28.5367 24.124L28.5507 24.432C28.5134 24.6187 28.4854 24.782 28.4667 24.922C28.4574 25.0527 28.4574 25.1973 28.4667 25.356C28.4854 25.636 28.4714 25.832 28.4247 25.944C28.3874 26.0467 28.308 26.1027 28.1867 26.112L25.9187 26.182C25.844 26.1633 25.6667 26.1587 25.3867 26.168C25.284 26.1773 25.1954 26.168 25.1207 26.14C25.046 26.1213 24.9714 26.098 24.8967 26.07C24.766 26.014 24.7007 25.874 24.7007 25.65V25.482C24.7007 25.4633 24.7054 25.4493 24.7147 25.44V25.398C24.696 25.3793 24.682 25.37 24.6727 25.37C24.486 25.6593 24.2294 25.8973 23.9027 26.084C23.5854 26.2707 23.2634 26.3733 22.9367 26.392ZM24.0007 24.152C24.4207 24.152 24.6914 23.928 24.8127 23.48L24.8267 23.214C24.836 23.0273 24.78 22.8547 24.6587 22.696C24.5374 22.528 24.4067 22.4487 24.2667 22.458C24.0894 22.4673 23.9354 22.5467 23.8047 22.696C23.6834 22.8453 23.632 23.0133 23.6507 23.2L23.7067 23.732C23.7814 24.012 23.8794 24.152 24.0007 24.152ZM29.4047 25.076V25.034L29.4187 24.726V21.758C29.4187 21.394 29.4187 21.1327 29.4187 20.974C29.4187 20.806 29.4187 20.694 29.4187 20.638C29.428 20.582 29.4374 20.5307 29.4467 20.484V19.938C29.4654 19.63 29.4794 19.3873 29.4887 19.21C29.5074 19.0233 29.5167 18.8413 29.5167 18.664C29.5167 18.3653 29.54 18.16 29.5867 18.048C29.6427 17.9267 29.736 17.866 29.8667 17.866L30.7347 17.88H32.0367C32.0834 17.8893 32.158 17.8987 32.2607 17.908C32.3727 17.908 32.5034 17.908 32.6527 17.908C32.8954 17.908 33.0867 17.95 33.2267 18.034C33.3294 18.0807 33.3807 18.328 33.3807 18.776C33.7914 18.2533 34.496 17.992 35.4947 17.992C36.1107 17.992 36.6427 18.16 37.0907 18.496C37.548 18.8227 37.898 19.2893 38.1407 19.896C38.3927 20.5027 38.5187 21.2213 38.5187 22.052C38.5187 22.3413 38.4814 22.6727 38.4067 23.046C38.332 23.4193 38.234 23.7693 38.1127 24.096C37.9914 24.4227 37.8654 24.6747 37.7347 24.852C37.3614 25.3467 36.974 25.7107 36.5727 25.944C36.1714 26.1773 35.7234 26.294 35.2287 26.294C34.6594 26.294 34.2067 26.238 33.8707 26.126C33.5347 26.014 33.2734 25.8273 33.0867 25.566V27.582H33.0727L33.0867 28.38V29.094C33.0867 29.262 32.8487 29.346 32.3727 29.346C32.2794 29.346 32.2 29.346 32.1347 29.346C32.0694 29.346 32.0134 29.3413 31.9667 29.332C31.892 29.3227 31.8267 29.3133 31.7707 29.304C31.724 29.2947 31.6774 29.29 31.6307 29.29C31.556 29.2807 31.416 29.2713 31.2107 29.262C31.0054 29.262 30.8187 29.262 30.6507 29.262L30.5947 29.318L29.8387 29.262C29.6614 29.2713 29.54 29.248 29.4747 29.192C29.4187 29.1453 29.3907 29.0847 29.3907 29.01C29.3907 28.9447 29.3907 28.8887 29.3907 28.842C29.3907 27.9647 29.3907 27.2133 29.3907 26.588C29.4 25.972 29.4047 25.468 29.4047 25.076ZM34.0387 23.774C34.1787 23.746 34.2767 23.62 34.3327 23.396C34.3794 23.2093 34.4074 23.0367 34.4167 22.878C34.4354 22.7193 34.4447 22.556 34.4447 22.388C34.4634 22.3133 34.4774 22.2107 34.4867 22.08C34.496 21.9493 34.5007 21.758 34.5007 21.506L34.4867 21.422C34.4867 21.3753 34.4774 21.3333 34.4587 21.296C34.4494 21.2587 34.4447 21.226 34.4447 21.198C34.4167 20.8807 34.3327 20.6287 34.1927 20.442C34.0527 20.246 33.88 20.148 33.6747 20.148C33.572 20.148 33.4974 20.246 33.4507 20.442C33.404 20.638 33.3434 20.9087 33.2687 21.254C33.2594 21.3753 33.2454 21.5573 33.2267 21.8C33.208 22.0333 33.1987 22.2107 33.1987 22.332C33.208 22.4347 33.2127 22.5653 33.2127 22.724C33.222 22.8827 33.236 23.0413 33.2547 23.2C33.2734 23.3493 33.292 23.466 33.3107 23.55C33.32 23.6993 33.376 23.7927 33.4787 23.83C33.5814 23.858 33.768 23.8393 34.0387 23.774ZM40.7748 16.69L40.6908 16.648C40.6908 16.6293 40.6814 16.62 40.6628 16.62C40.6348 16.62 40.6161 16.6247 40.6068 16.634C40.5974 16.6433 40.5788 16.648 40.5508 16.648L40.4248 16.676L40.3268 16.648C40.2988 16.648 40.2801 16.6433 40.2708 16.634C40.2614 16.6247 40.2428 16.62 40.2148 16.62L39.8928 16.578L39.7948 16.536H39.7248C39.7248 16.5547 39.7154 16.564 39.6968 16.564C39.6314 16.564 39.5894 16.5593 39.5708 16.55C39.5614 16.5407 39.5381 16.536 39.5008 16.536C39.4261 16.4893 39.3748 16.4147 39.3468 16.312C39.3374 16.2933 39.3328 16.2747 39.3328 16.256C39.3328 16.228 39.3281 16.2093 39.3188 16.2C39.3094 16.1907 39.3048 16.1813 39.3048 16.172C39.3048 16.1533 39.3001 16.1393 39.2908 16.13V14.8C39.3001 14.7627 39.3048 14.7067 39.3048 14.632V14.268C39.3048 14.1467 39.2954 14.0627 39.2768 14.016V13.988C39.2768 13.9787 39.3188 13.9693 39.4028 13.96C39.4868 13.9507 39.5661 13.946 39.6408 13.946C39.7154 13.946 39.7621 13.946 39.7808 13.946C39.8088 13.946 39.8274 13.9507 39.8368 13.96H40.0328L40.3128 13.988L40.5788 14.072C40.6441 14.0813 40.7654 14.0953 40.9428 14.114C41.1201 14.1327 41.2274 14.142 41.2648 14.142C41.3114 14.142 41.4001 14.156 41.5308 14.184C41.6708 14.212 41.7594 14.2213 41.7968 14.212C41.8434 14.2027 41.8901 14.2213 41.9368 14.268C41.9834 14.3053 42.0254 14.324 42.0628 14.324C42.2308 14.296 42.4034 14.3193 42.5808 14.394C42.6834 14.4313 42.7721 14.464 42.8468 14.492C42.9214 14.5107 42.9634 14.5573 42.9728 14.632L42.9868 15.066C42.9961 15.3367 43.0148 15.5607 43.0428 15.738C43.0801 15.906 43.0801 16.1393 43.0428 16.438L42.9448 16.536L41.7548 16.648C41.6801 16.648 41.5774 16.6527 41.4468 16.662C41.3254 16.662 41.2508 16.6667 41.2228 16.676C41.1854 16.6853 41.1481 16.69 41.1108 16.69C41.0734 16.69 41.0314 16.69 40.9848 16.69H40.7748ZM42.2868 26.224L41.9508 26.182L41.3068 26.112L41.1108 26.126H40.6208C40.6114 26.0887 40.5834 26.07 40.5368 26.07L40.3408 26.084C40.2754 26.0933 40.2101 26.1027 40.1448 26.112C40.0888 26.1213 40.0468 26.126 40.0188 26.126C40.0001 26.1073 39.9674 26.0933 39.9208 26.084H39.8508C39.8508 26.0747 39.8414 26.07 39.8228 26.07L39.7808 26.084L39.7668 26.098C39.6361 26.098 39.5474 26.0607 39.5008 25.986C39.4634 25.9207 39.4354 25.832 39.4168 25.72C39.3981 25.5987 39.3888 25.4213 39.3888 25.188C39.3981 25.1227 39.3981 25.048 39.3888 24.964C39.3888 24.88 39.3794 24.7447 39.3608 24.558L39.3188 23.984V20.022C39.3188 19.8633 39.3141 19.7093 39.3048 19.56C39.3048 19.4107 39.2954 19.2287 39.2768 19.014C39.2674 18.93 39.2534 18.8553 39.2348 18.79C39.2254 18.7807 39.2208 18.748 39.2208 18.692C39.2394 18.3187 39.3188 18.0713 39.4588 17.95C39.6081 17.8193 39.8881 17.754 40.2988 17.754C40.2988 17.754 40.3268 17.7447 40.3828 17.726C40.4108 17.7167 40.4434 17.712 40.4808 17.712H40.4948C40.5041 17.712 40.5134 17.7167 40.5228 17.726C40.6068 17.726 40.6581 17.7353 40.6768 17.754H40.7328C40.7701 17.754 40.8028 17.74 40.8308 17.712L41.8808 17.726C41.9181 17.726 41.9601 17.726 42.0068 17.726C42.0534 17.7167 42.1094 17.7073 42.1748 17.698C42.2308 17.6887 42.3521 17.684 42.5388 17.684C42.9681 17.684 43.1828 17.7587 43.1828 17.908V20.064C43.1828 20.3813 43.1781 20.736 43.1688 21.128C43.1594 21.52 43.1501 21.8887 43.1408 22.234C43.1314 22.5793 43.1174 22.85 43.0988 23.046L43.0568 23.62C43.0381 23.9373 43.0241 24.2127 43.0148 24.446C43.0054 24.6793 42.9961 24.8707 42.9868 25.02C42.9774 25.0293 42.9728 25.0527 42.9728 25.09C42.9728 25.118 42.9728 25.1973 42.9728 25.328C42.9728 25.58 42.9401 25.7853 42.8748 25.944C42.8094 26.0933 42.7208 26.168 42.6088 26.168L42.2868 26.224Z" fill="#867070"/>
</svg>
